<svg xmlns="http://www.w3.org/2000/svg" width="50" height="50" viewBox="0 0 50 50" fill="none">
    <path
        d="M45.8334 12.5001V37.5001C45.8334 38.6459 45.4254 39.6268 44.6095 40.4428C43.7935 41.2588 42.8126 41.6668 41.6667 41.6668H8.33341C7.18758 41.6668 6.20668 41.2588 5.39071 40.4428C4.57473 39.6268 4.16675 38.6459 4.16675 37.5001V12.5001C4.16675 11.3543 4.57473 10.3734 5.39071 9.55738C6.20668 8.74141 7.18758 8.33342 8.33341 8.33342H41.6667C42.8126 8.33342 43.7935 8.74141 44.6095 9.55738C45.4254 10.3734 45.8334 11.3543 45.8334 12.5001ZM8.33341 16.6668H41.6667V12.5001H8.33341V16.6668ZM8.33341 25.0001V37.5001H41.6667V25.0001H8.33341Z"
        fill="white" />
</svg>