<svg width="44" height="38" viewBox="0 0 44 38" fill="none" xmlns="http://www.w3.org/2000/svg">
    <rect x="1" y="1.00007" width="42" height="36" rx="11" stroke="white" stroke-width="2" />
    <g clip-path="url(#clip0_21_700)">
        <path
            d="M21.065 19.7901V23.9397H19.79V13.6772H23.105C23.9125 13.6772 24.6775 13.9896 25.2725 14.5696C25.8675 15.1051 26.165 15.9082 26.165 16.756C26.165 17.6037 25.8675 18.3623 25.2725 18.9423C24.6775 19.5224 23.955 19.8347 23.105 19.8347L21.065 19.7901ZM21.065 14.9266V18.4961H23.19C23.6575 18.4961 24.125 18.3177 24.4225 17.9607C25.1025 17.2914 25.1025 16.1759 24.465 15.5066L24.4225 15.462C24.0825 15.1051 23.6575 14.882 23.19 14.9266H21.065Z"
            fill="white" />
        <path
            d="M29.0975 16.7114C30.0325 16.7114 30.755 16.9791 31.3075 17.5145C31.86 18.0499 32.115 18.7639 32.115 19.6562V23.9397H30.925V22.9581H30.8825C30.3725 23.7612 29.65 24.1628 28.8 24.1628C28.0775 24.1628 27.44 23.9397 26.93 23.4935C26.4625 23.0473 26.165 22.4226 26.165 21.7534C26.165 21.0394 26.42 20.4594 26.93 20.0132C27.44 19.567 28.1625 19.3885 29.0125 19.3885C29.7775 19.3885 30.3725 19.5224 30.84 19.8347V19.5224C30.84 19.0762 30.67 18.63 30.33 18.3623C29.99 18.0499 29.565 17.8715 29.0975 17.8715C28.375 17.8715 27.8225 18.1838 27.44 18.8085L26.335 18.0946C27.015 17.1576 27.9075 16.7114 29.0975 16.7114ZM27.4825 21.798C27.4825 22.1549 27.6525 22.4673 27.9075 22.6457C28.205 22.8688 28.545 23.0027 28.885 23.0027C29.395 23.0027 29.905 22.7796 30.2875 22.378C30.7125 21.9764 30.925 21.4856 30.925 20.9502C30.5425 20.6379 29.99 20.4594 29.2675 20.4594C28.7575 20.4594 28.3325 20.5932 27.9925 20.861C27.6525 21.0841 27.4825 21.3964 27.4825 21.798Z"
            fill="white" />
        <path
            d="M38.9999 16.9345L34.7924 27.0631H33.5174L35.0899 23.5381L32.3274 16.9791H33.6874L35.6849 22.0211H35.7274L37.6824 16.9791H38.9999V16.9345Z"
            fill="white" />
        <path
            d="M16.0076 18.8977C16.0076 18.4961 15.9651 18.0946 15.9226 17.693H10.6101V19.9686H13.6276C13.5001 20.6825 13.1176 21.3518 12.5226 21.7534V23.2258H14.3501C15.4126 22.1995 16.0076 20.6825 16.0076 18.8977Z"
            fill="#4285F4" />
        <path
            d="M10.61 24.6536C12.14 24.6536 13.415 24.1182 14.35 23.2258L12.5225 21.7533C12.0125 22.1103 11.375 22.3334 10.61 22.3334C9.16497 22.3334 7.88997 21.3072 7.46497 19.8793H5.59497V21.3964C6.57247 23.4043 8.48497 24.6536 10.61 24.6536Z"
            fill="#34A853" />
        <path
            d="M7.46488 19.8793C7.20988 19.1654 7.20988 18.3623 7.46488 17.6037V16.0867H5.59488C4.78738 17.7376 4.78738 19.7009 5.59488 21.3964L7.46488 19.8793Z"
            fill="#FBBC04" />
        <path
            d="M10.61 15.1943C11.4175 15.1943 12.1825 15.5066 12.7775 16.0867L14.3925 14.3911C13.3725 13.4095 12.0125 12.8295 10.6525 12.8741C8.52745 12.8741 6.57245 14.1234 5.63745 16.1313L7.50745 17.6484C7.88995 16.2205 9.16495 15.1943 10.61 15.1943Z"
            fill="#EA4335" />
    </g>
    <defs>
        <clipPath id="clip0_21_700">
            <rect width="34" height="17" fill="white" transform="translate(5 11.0001)" />
        </clipPath>
    </defs>
</svg>
    