<svg xmlns="http://www.w3.org/2000/svg" width="36" height="36" viewBox="0 0 36 36" fill="none">
    <path
        d="M18 22.5001C20.4853 22.5001 22.5 20.4853 22.5 18.0001C22.5 15.5148 20.4853 13.5001 18 13.5001C15.5147 13.5001 13.5 15.5148 13.5 18.0001C13.5 20.4853 15.5147 22.5001 18 22.5001Z"
        stroke="white" stroke-width="3" stroke-linecap="round" stroke-linejoin="round" />
    <path fill-rule="evenodd" clip-rule="evenodd"
        d="M21.4055 6.81162C21.4055 5.53498 20.3706 4.50006 19.094 4.50006H16.906C15.6293 4.50006 14.5944 5.53498 14.5944 6.81162C14.5944 7.79369 13.9601 8.64623 13.0971 9.11493C12.9622 9.18821 12.8291 9.26443 12.698 9.34348C11.8506 9.85429 10.7887 9.97692 9.92997 9.48556C8.80936 8.84438 7.38135 9.227 6.73144 10.3426L5.67481 12.1563C5.02745 13.2675 5.40949 14.6933 6.5257 15.332C7.38076 15.8212 7.80643 16.7988 7.78559 17.7837C7.78407 17.8557 7.78331 17.9278 7.78331 18.0001C7.78331 18.0724 7.78407 18.1445 7.7856 18.2165C7.80643 19.2014 7.38077 20.1789 6.52572 20.6682C5.40954 21.3068 5.02751 22.7326 5.67485 23.8438L6.73151 25.6576C7.38142 26.7731 8.80941 27.1557 9.93002 26.5146C10.7888 26.0232 11.8506 26.1458 12.698 26.6566C12.8291 26.7357 12.9622 26.8119 13.0971 26.8852C13.9601 27.3539 14.5944 28.2064 14.5944 29.1885C14.5944 30.4651 15.6293 31.5001 16.906 31.5001H19.094C20.3706 31.5001 21.4055 30.4651 21.4055 29.1885C21.4055 28.2064 22.0398 27.3539 22.9028 26.8852C23.0378 26.8119 23.1708 26.7357 23.302 26.6567C24.1493 26.1459 25.2112 26.0232 26.0699 26.5146C27.1905 27.1558 28.6185 26.7731 29.2684 25.6576L30.3251 23.8438C30.9724 22.7326 30.5904 21.3068 29.4742 20.6682C28.6192 20.179 28.1935 19.2014 28.2144 18.2165C28.2159 18.1445 28.2166 18.0724 28.2166 18.0001C28.2166 17.9278 28.2159 17.8557 28.2144 17.7837C28.1935 16.7988 28.6192 15.8212 29.4743 15.3319C30.5905 14.6933 30.9725 13.2675 30.3251 12.1563L29.2685 10.3426C28.6186 9.22699 27.1906 8.84436 26.07 9.48555C25.2112 9.97691 24.1493 9.85428 23.302 9.34347C23.1708 9.26442 23.0378 9.18821 22.9028 9.11493C22.0398 8.64623 21.4055 7.79369 21.4055 6.81162Z"
        stroke="white" stroke-width="3" />
</svg>