<svg viewBox="0 0 320 52" fill="none" xmlns="http://www.w3.org/2000/svg">
    <path
        d="M9.11369 26.2588H4.88494V47.266H9.04078C16.5505 47.266 19.0294 44.2332 19.0294 36.5405C19.1023 28.8477 16.1859 26.2588 9.11369 26.2588ZM10.499 22.0426C19.321 22.0426 24.4247 26.1109 24.4247 36.6145C24.4247 45.4167 20.5605 51.4822 10.3532 51.4822H0V22.0426H10.499Z"
        fill="#2F3B88" />
    <path
        d="M31.1324 39.2034H40.5378C40.3919 36.0227 39.1525 34.2475 36.0174 34.2475C33.1739 34.2475 31.5699 35.6529 31.1324 39.2034ZM40.319 45.3428H44.9123C44.3291 48.6714 41.7043 51.8521 35.9445 51.8521C29.4555 51.8521 26.3933 47.266 26.3933 41.2745C26.3933 35.0611 29.5284 30.4751 35.9445 30.4751C42.8709 30.4751 45.0581 35.283 45.0581 40.3869V42.6799H31.0595C31.3512 46.4523 32.9552 48.1536 35.9445 48.1536C39.4441 48.1536 40.1003 46.5263 40.319 45.3428Z"
        fill="#2F3B88" />
    <path
        d="M61.4629 49.0412C60.2963 50.5206 58.4007 51.852 55.0468 51.852C50.2348 51.852 47.7559 49.2631 47.7559 44.2332V30.9928H52.3492V43.0497C52.3492 45.9345 53.0783 48.0056 56.2134 48.0056C58.6923 48.0056 60.2234 46.2304 60.6608 44.9729C60.9525 44.0853 61.0254 43.1976 61.0254 42.0881V30.9928H65.6187V51.4082H61.5358L61.4629 49.0412Z"
        fill="#2F3B88" />
    <path
        d="M81.5129 51.3343C80.9296 51.4822 79.9089 51.5562 78.5965 51.5562C73.8574 51.5562 71.816 50.5206 71.816 44.7511V34.5434H68.0247V30.9929H71.816V25.2233H76.4093V30.9929H81.3671V34.5434H76.4093V44.3812C76.4093 47.192 77.0654 47.9317 79.6902 47.9317C80.5651 47.9317 81.3671 47.7838 81.5129 47.7098V51.3343Z"
        fill="#2F3B88" />
    <path
        d="M87.8561 45.2688C87.929 46.4523 88.3665 48.3015 91.7203 48.3755C94.5638 48.3755 95.5845 47.2659 95.5845 45.8605C95.5845 44.5291 94.7825 43.9373 93.1056 43.4935L88.731 42.5319C85.8875 41.8662 83.7002 40.3129 83.7002 36.7624C83.7002 32.7681 86.9812 30.623 91.5745 30.623C96.9698 30.623 99.6674 33.4338 99.8862 37.2801H95.3658C95.2199 36.1706 94.4179 34.1735 91.2099 34.1735C88.9497 34.1735 87.929 35.1351 87.929 36.4665C87.929 37.9459 88.8768 38.5376 90.6996 38.9075L94.9283 39.7951C98.3551 40.5348 100.032 42.6059 100.032 45.7126C100.032 48.8933 97.8447 51.9999 91.7932 51.9999C85.8146 51.926 83.5544 49.1152 83.3357 45.3427H87.8561V45.2688Z"
        fill="#2F3B88" />
    <path
        d="M106.448 41.2745C106.448 45.3428 107.687 48.0796 111.041 48.0796C114.468 48.0796 115.051 45.8606 115.124 44.2333H119.717C119.28 48.8933 116.364 51.7781 111.041 51.7781C103.604 51.7781 101.709 46.8222 101.709 41.2005C101.709 35.6529 103.677 30.4751 111.041 30.4751C116.947 30.4751 119.499 33.7297 119.79 38.0199H115.124C114.905 36.6145 114.468 34.2475 110.968 34.2475C107.979 34.3214 106.448 36.5405 106.448 41.2745Z"
        fill="#2F3B88" />
    <path
        d="M126.571 51.4822H121.978V22.0426H126.571V33.064C127.811 31.7325 129.633 30.549 132.914 30.549C137.58 30.549 139.914 33.4338 139.914 37.724V51.4822H135.32V39.2034C135.32 35.8748 133.935 34.5433 131.602 34.5433C129.487 34.5433 128.029 35.7268 127.3 36.8364C126.717 37.798 126.571 38.6856 126.571 40.165V51.4822Z"
        fill="#2F3B88" />
    <path
        d="M147.059 39.2034H156.464C156.318 36.0227 155.079 34.2475 151.944 34.2475C149.1 34.2475 147.496 35.6529 147.059 39.2034ZM156.245 45.3428H160.839C160.255 48.6714 157.631 51.8521 151.871 51.8521C145.382 51.8521 142.32 47.266 142.32 41.2745C142.32 35.0611 145.455 30.4751 151.871 30.4751C158.797 30.4751 160.984 35.283 160.984 40.3869V42.6799H146.986C147.277 46.4523 148.881 48.1536 151.871 48.1536C155.37 48.1536 156.027 46.5263 156.245 45.3428Z"
        fill="#2F3B88" />
    <path
        d="M175.858 38.1678V47.266H182.42C186.138 47.266 187.815 46.0085 187.815 42.6799C187.815 39.3513 186.138 38.1678 182.42 38.1678H175.858ZM181.472 26.1849H175.858V33.9516H181.618C185.336 33.9516 186.503 32.7681 186.503 30.0312C186.503 27.5163 185.336 26.1849 181.472 26.1849ZM170.9 51.4822V22.0426H182.347C189.127 22.0426 191.752 25.1493 191.752 29.5874C191.752 32.8421 190.075 35.1351 187.815 35.8748C190.513 36.3186 193.137 38.5376 193.137 42.7539C193.137 48.1536 190.367 51.4822 183.222 51.4822H170.9Z"
        fill="#2F3B88" />
    <path
        d="M207.938 43.7155V42.384H203.345C200.72 42.384 199.626 43.4196 199.626 45.3428C199.626 46.9701 200.356 48.1536 202.98 48.1536C205.605 48.1536 207.209 46.8222 207.719 45.2688C207.938 44.751 207.938 44.3812 207.938 43.7155ZM212.458 51.4822H208.448L208.303 49.1152C207.136 50.5946 205.095 51.926 201.814 51.926C197.804 51.926 194.96 49.559 194.96 45.4907C194.96 41.5704 197.804 38.9075 203.345 38.9075H207.938V37.5021C207.938 34.9871 206.626 34.1735 204.22 34.1735C201.376 34.1735 200.72 35.431 200.501 36.7624H195.835C196.491 33.1379 198.897 30.549 204.293 30.549C209.834 30.549 212.386 32.7681 212.386 37.798V51.4822H212.458Z"
        fill="#2F3B88" />
    <path
        d="M220.697 33.064C221.937 31.7325 223.832 30.549 227.04 30.549C231.707 30.549 234.04 33.4338 234.04 37.724V51.4822H229.373V39.2034C229.373 35.8748 227.988 34.5433 225.655 34.5433C223.541 34.5433 222.082 35.7268 221.353 36.8364C220.77 37.798 220.624 38.7596 220.624 40.2389V51.4082H216.031V30.9928H220.406L220.697 33.064Z"
        fill="#2F3B88" />
    <path
        d="M237.758 51.4082H242.351V22.0426H237.758V51.4082ZM250.517 30.9928L242.57 40.017L251.319 51.4822H256.86L247.82 39.8691L255.767 30.9928H250.517Z"
        fill="#2F3B88" />
    <path
        d="M269.328 51.4822H320V-6.10352e-05H269.328V51.4822ZM276.4 7.24888H312.928V44.3073H276.4V7.24888ZM299.731 12.3527L280.483 39.1294H289.597L308.845 12.3527H299.731Z"
        fill="#2F3B88" />
</svg>
    